<svg width="1600" height="720" viewBox="0 0 1600 720" xmlns="http://www.w3.org/2000/svg">
  <rect width="1600" height="720" fill="#f7f9fc"/>
  <rect x="0" y="0" width="1600" height="720" fill="#1f6feb" opacity="0.08"/>

  <g transform="translate(140 128)">
    <rect width="176" height="176" rx="28" fill="#1f6feb"/>
    <rect x="39" y="33" width="99" height="110" rx="11" fill="#ffffff"/>
    <rect x="55" y="58" width="66" height="8" rx="4" fill="#1f6feb"/>
    <rect x="55" y="80" width="50" height="8" rx="4" fill="#1f6feb"/>
    <rect x="55" y="102" width="60" height="8" rx="4" fill="#1f6feb"/>
  </g>

  <text x="140" y="396" fill="#172033" font-family="Ubuntu, Arial, sans-serif" font-size="86" font-weight="700">NextNotes</text>
  <text x="144" y="466" fill="#42526e" font-family="Ubuntu, Arial, sans-serif" font-size="34">Native but simple Ubuntu Touch client for Nextcloud Notes</text>
  <text x="144" y="528" fill="#42526e" font-family="Ubuntu, Arial, sans-serif" font-size="28">Plain-text notes, offline cache, and safe synchronization</text>

  <g transform="translate(1000 120)">
    <rect x="0" y="0" width="430" height="510" rx="34" fill="#172033" opacity="0.12"/>
    <rect x="18" y="18" width="394" height="474" rx="28" fill="#ffffff"/>
    <rect x="54" y="62" width="36" height="36" rx="18" fill="#1f6feb"/>
    <rect x="112" y="68" width="220" height="24" rx="12" fill="#dce7f7"/>
    <rect x="340" y="62" width="36" height="36" rx="18" fill="#dce7f7"/>

    <text x="54" y="148" fill="#42526e" font-family="Ubuntu, Arial, sans-serif" font-size="20" font-weight="700">Today</text>
    <rect x="54" y="168" width="322" height="72" rx="12" fill="#f7f9fc"/>
    <path d="M77 197 L84 211 L100 213 L88 224 L91 240 L77 232 L63 240 L66 224 L54 213 L70 211 Z" fill="#f5c542"/>
    <rect x="116" y="192" width="160" height="14" rx="7" fill="#172033" opacity="0.75"/>
    <rect x="116" y="217" width="210" height="12" rx="6" fill="#42526e" opacity="0.38"/>
    <text x="332" y="206" fill="#42526e" font-family="Ubuntu, Arial, sans-serif" font-size="18">9h</text>

    <text x="54" y="286" fill="#42526e" font-family="Ubuntu, Arial, sans-serif" font-size="20" font-weight="700">Yesterday</text>
    <rect x="54" y="306" width="322" height="72" rx="12" fill="#f7f9fc"/>
    <path d="M77 335 L84 349 L100 351 L88 362 L91 378 L77 370 L63 378 L66 362 L54 351 L70 349 Z" fill="none" stroke="#42526e" stroke-width="3"/>
    <rect x="116" y="330" width="185" height="14" rx="7" fill="#172033" opacity="0.75"/>
    <rect x="116" y="355" width="160" height="12" rx="6" fill="#42526e" opacity="0.38"/>
    <text x="314" y="344" fill="#42526e" font-family="Ubuntu, Arial, sans-serif" font-size="18">14 Apr</text>

    <circle cx="342" cy="424" r="31" fill="#1f6feb"/>
    <text x="331" y="436" fill="#ffffff" font-family="Ubuntu, Arial, sans-serif" font-size="38" font-weight="700">+</text>
  </g>
</svg>
